<svg width="119" height="104" viewBox="0 0 119 104" fill="none" xmlns="http://www.w3.org/2000/svg">
<path fill-rule="evenodd" clip-rule="evenodd" d="M31.3388 1.27812C32.5441 1.27674 33.7498 1.35081 34.9481 1.49974C35.3625 1.55126 35.7762 1.61195 36.1886 1.68144C37.3016 1.86897 38.4064 2.12158 39.4967 2.44006C39.7843 2.52406 40.071 2.61255 40.3564 2.70566C41.211 2.98438 42.0557 3.30414 42.8877 3.66449C43.0408 3.7308 43.1936 3.79852 43.3458 3.8676C43.4145 3.89877 43.4832 3.93018 43.5517 3.96192C43.7001 4.03066 43.8482 4.10059 43.9957 4.17197C44.4338 4.38401 44.868 4.60786 45.2977 4.84321C45.4744 4.94001 45.6505 5.03873 45.8257 5.13948C47.058 5.84808 48.2519 6.65398 49.3961 7.55767C49.5353 7.66762 49.6736 7.7793 49.8113 7.89214C50.674 8.59883 51.5074 9.36189 52.3065 10.1819L59.5692 17.6349L66.5734 10.4475C68.2114 8.76674 69.9938 7.32341 71.8791 6.1174C72.1212 5.96252 72.3653 5.81137 72.6108 5.66432C73.4116 5.18458 74.2297 4.74601 75.062 4.34962C75.1716 4.29739 75.2818 4.24589 75.392 4.19512C76.4946 3.68678 77.6216 3.25068 78.7655 2.88736C79.1086 2.77839 79.4535 2.67602 79.7996 2.58009C80.4918 2.3882 81.1897 2.22213 81.8914 2.08245C83.9964 1.6634 86.1375 1.47945 88.274 1.53041C88.9859 1.5474 89.6975 1.59028 90.407 1.65945C93.3754 1.94891 96.3097 2.69564 99.1008 3.89884C99.4237 4.03804 99.7449 4.18315 100.064 4.33457C100.174 4.38672 100.283 4.43952 100.393 4.49312C101.049 4.81478 101.696 5.16254 102.332 5.53644C102.65 5.72333 102.966 5.91688 103.278 6.11683C103.487 6.25022 103.694 6.38673 103.9 6.52593C104.003 6.59542 104.105 6.66563 104.207 6.73656C104.412 6.87862 104.615 7.02327 104.817 7.17113C104.918 7.24499 105.018 7.31977 105.118 7.39507C105.82 7.92276 106.504 8.48593 107.168 9.08474C107.263 9.17023 107.357 9.25646 107.451 9.3434C107.827 9.69128 108.197 10.0509 108.559 10.422C108.831 10.7003 109.097 10.983 109.356 11.2692C109.615 11.5555 109.868 11.8456 110.114 12.1395C110.443 12.5312 110.76 12.9295 111.066 13.3338C111.448 13.8393 111.813 14.3546 112.16 14.8782C112.785 15.8208 113.352 16.7914 113.862 17.7848C113.975 18.0057 114.086 18.2278 114.194 18.4508C118.447 27.258 118.285 37.7378 113.706 46.4183C113.616 46.5904 113.522 46.7616 113.428 46.9322C112.138 49.2675 110.524 51.4661 108.584 53.4571L59.6278 103.695L59.4501 103.513L59.392 103.574L10.437 53.3379C3.91937 46.6495 1.06112 37.6164 1.86559 28.8718C1.99965 27.4146 2.23552 25.965 2.57301 24.536C2.71366 23.9405 2.87205 23.3482 3.04802 22.7607C3.08316 22.6433 3.11921 22.5258 3.15576 22.4088C3.2656 22.0573 3.38185 21.7072 3.5044 21.3592C3.66776 20.8952 3.84252 20.4343 4.02848 19.9773C4.21441 19.5205 4.41173 19.067 4.62026 18.6181C4.88102 18.0566 5.15964 17.5014 5.45574 16.9539C6.37624 15.2517 7.46798 13.6209 8.72997 12.088C9.25414 11.4513 9.80769 10.8309 10.3908 10.2299C10.752 9.85755 11.1205 9.49636 11.4954 9.14724C12.0577 8.62356 12.635 8.12573 13.2256 7.65431C13.4223 7.49724 13.6211 7.34323 13.8207 7.19197C13.9205 7.11633 14.0209 7.04105 14.1214 6.96687C14.3224 6.81855 14.5252 6.67308 14.729 6.53056C14.8663 6.43454 15.0045 6.33984 15.143 6.24644C15.3131 6.13179 15.4841 6.01861 15.6558 5.90793C16.0715 5.64016 16.4925 5.38403 16.9178 5.13948C17.9812 4.52802 19.0738 3.98895 20.1881 3.52272C20.4109 3.42948 20.6349 3.33876 20.8594 3.25133C20.9717 3.2076 21.0846 3.16457 21.1973 3.12229C21.4225 3.03785 21.6487 2.95617 21.8754 2.87752C22.2158 2.75946 22.5581 2.64805 22.9016 2.54306C23.016 2.50807 23.1309 2.47359 23.2457 2.44006C25.8873 1.66837 28.613 1.28126 31.3388 1.27812ZM63.6744 70.1212C62.9686 72.4134 59.7685 72.296 59.2239 69.958L53.5809 45.735L48.6515 60.7105C48.0268 62.6081 45.5313 62.9048 44.5 61.2041L40.3581 54.3731H16.3463L59.3683 98.5209L59.4225 98.4648L59.6233 98.6702L102.79 54.3737H88.1758L84.3386 63.2283C83.4261 65.3332 80.4178 65.0005 79.9637 62.7445L74.4234 35.2058L63.6744 70.1212ZM31.3427 4.83337C28.9339 4.83614 26.5264 5.17828 24.1951 5.85932C24.0963 5.8882 23.9952 5.91852 23.8916 5.95017C23.5872 6.04323 23.2847 6.14156 22.9856 6.24529C22.7861 6.31452 22.5865 6.38654 22.3877 6.46113C22.2865 6.49908 22.1867 6.53717 22.0892 6.57512C21.8937 6.65126 21.6964 6.73143 21.4974 6.81468C20.5146 7.22589 19.5505 7.70112 18.6125 8.24049C18.4246 8.34853 18.2377 8.4592 18.0523 8.57206L17.4994 8.91867L17.047 9.21725C16.9222 9.3014 16.8002 9.38475 16.6814 9.46781C16.5004 9.59446 16.3217 9.72321 16.1455 9.8532C16.0599 9.91637 15.9715 9.98222 15.8798 10.0517C15.7002 10.1877 15.5253 10.3239 15.3546 10.4602C14.8332 10.8764 14.3227 11.3163 13.8252 11.7795C13.4943 12.0877 13.1681 12.4074 12.8476 12.7378C12.332 13.2693 11.842 13.8181 11.378 14.3817C10.2624 15.7369 9.29875 17.1769 8.48683 18.6782C8.22546 19.1616 7.97952 19.6517 7.74951 20.1469C7.56553 20.543 7.39131 20.9436 7.22712 21.347C7.06302 21.7502 6.90878 22.1572 6.76453 22.5668C6.6564 22.8739 6.55356 23.1832 6.45651 23.4938C6.42358 23.5992 6.39163 23.7028 6.36117 23.8045C6.20574 24.3236 6.06572 24.8472 5.94146 25.3733C5.64326 26.636 5.43493 27.9173 5.3164 29.2057C4.6049 36.9396 7.13028 44.9118 12.8814 50.8179H41.0001C41.7485 50.8179 42.4473 51.1898 42.8793 51.8091L42.9622 51.9364L46.1501 57.1946L51.5821 40.6943C52.3129 38.4758 55.3819 38.5842 55.992 40.795L56.0191 40.902L61.6254 64.9712L72.4551 29.7948L72.4906 29.6871C73.2614 27.5062 76.3476 27.6685 76.8971 29.9186L76.9219 30.0291L82.6315 58.4138L85.314 52.2257L85.3884 52.0689C85.7883 51.3033 86.569 50.8185 87.425 50.8184H106.252C107.915 49.0898 109.301 47.1912 110.412 45.1795C110.499 45.0217 110.581 44.8717 110.658 44.7264C114.699 37.0648 114.843 27.8043 111.088 20.0288L110.795 19.4415C110.402 18.6746 109.969 17.923 109.498 17.19L109.294 16.8769C108.987 16.4136 108.665 15.9584 108.328 15.513C108.058 15.1561 107.777 14.8047 107.487 14.4581C107.27 14.1998 107.046 13.9431 106.816 13.6885C106.587 13.4351 106.351 13.1847 106.111 12.9386C105.789 12.6093 105.462 12.2909 105.13 11.9838C105.046 11.9068 104.963 11.8301 104.879 11.7547C104.292 11.2255 103.688 10.7278 103.068 10.2617C102.977 10.1927 102.889 10.1273 102.803 10.0644C102.627 9.93599 102.448 9.80834 102.264 9.68076C102.174 9.61837 102.084 9.55595 101.993 9.49443C101.809 9.37045 101.626 9.24992 101.444 9.13335C101.168 8.95654 100.889 8.78581 100.609 8.62124C100.048 8.29147 99.4768 7.98452 98.8977 7.7006L98.6078 7.56115C98.3279 7.42825 98.0446 7.29981 97.7582 7.17634C95.2948 6.11442 92.703 5.45437 90.0792 5.1985C89.4527 5.13742 88.8233 5.09954 88.1933 5.08451C86.3043 5.03946 84.4117 5.20211 82.552 5.57231C81.9327 5.6956 81.3158 5.84244 80.7039 6.01209C80.3973 6.09709 80.0925 6.18758 79.7905 6.28348C78.7808 6.60417 77.7862 6.98925 76.813 7.43789C76.7132 7.4839 76.6163 7.52952 76.5219 7.57446C75.7885 7.92377 75.0664 8.31034 74.359 8.73408C74.1425 8.86382 73.9268 8.99723 73.7131 9.13393C72.0496 10.198 70.4745 11.4734 69.0246 12.9611L59.5692 22.664L49.8553 12.695C49.1483 11.9694 48.411 11.2949 47.6484 10.6703C47.523 10.5675 47.4012 10.4689 47.2818 10.3746C46.2718 9.57692 45.2183 8.86569 44.1311 8.24049C43.9775 8.15217 43.8219 8.06541 43.6651 7.97951C43.2856 7.77164 42.9024 7.57431 42.5165 7.38755C42.3886 7.32565 42.2582 7.2635 42.125 7.2018C42.0667 7.1748 42.0063 7.1476 41.9434 7.11905L41.5394 6.93967C40.805 6.6216 40.0596 6.33946 39.306 6.09368C39.0548 6.01175 38.8017 5.93364 38.5473 5.85932C37.5858 5.57849 36.6104 5.35557 35.6267 5.18982C35.2616 5.1283 34.8963 5.07433 34.5312 5.02896C33.4722 4.89733 32.4071 4.83215 31.3427 4.83337Z" fill="white"/>
<path d="M63.1581 19.4531C63.1581 21.4643 61.5685 23.0948 59.6078 23.0948C57.647 23.0948 56.0574 21.4643 56.0574 19.4531C56.0574 17.4418 57.647 15.8114 59.6078 15.8114C61.5685 15.8114 63.1581 17.4418 63.1581 19.4531Z" fill="white"/>
<path d="M33.5756 3.64171C33.5756 5.65298 31.9861 7.28343 30.0253 7.28343C28.0645 7.28343 26.4749 5.65298 26.4749 3.64171C26.4749 1.63045 28.0645 0 30.0253 0C31.9861 0 33.5756 1.63045 33.5756 3.64171Z" fill="white"/>
<path d="M119 32.8105C119 34.8218 117.41 36.4522 115.45 36.4522C113.489 36.4522 111.899 34.8218 111.899 32.8105C111.899 30.7992 113.489 29.1688 115.45 29.1688C117.41 29.1688 119 30.7992 119 32.8105Z" fill="white"/>
<path d="M101.394 61.9761C101.394 63.9873 99.8048 65.6178 97.844 65.6178C95.8832 65.6178 94.2937 63.9873 94.2937 61.9761C94.2937 59.9648 95.8832 58.3343 97.844 58.3343C99.8048 58.3343 101.394 59.9648 101.394 61.9761Z" fill="white"/>
<path d="M80.8526 82.8503C80.8526 84.8616 79.263 86.492 77.3022 86.492C75.3414 86.492 73.7519 84.8616 73.7519 82.8503C73.7519 80.839 75.3414 79.2086 77.3022 79.2086C79.263 79.2086 80.8526 80.839 80.8526 82.8503Z" fill="white"/>
<path d="M63.1581 100.358C63.1581 102.37 61.5685 104 59.6078 104C57.647 104 56.0574 102.37 56.0574 100.358C56.0574 98.347 57.647 96.7166 59.6078 96.7166C61.5685 96.7166 63.1581 98.347 63.1581 100.358Z" fill="white"/>
<path d="M43.4372 81.0693C43.4372 83.0806 41.8477 84.711 39.8869 84.711C37.9261 84.711 36.3366 83.0806 36.3366 81.0693C36.3366 79.0581 37.9261 77.4276 39.8869 77.4276C41.8477 77.4276 43.4372 79.0581 43.4372 81.0693Z" fill="white"/>
<path d="M24.0316 61.0649C24.0316 63.0762 22.4421 64.7066 20.4813 64.7066C18.5205 64.7066 16.9309 63.0762 16.9309 61.0649C16.9309 59.0536 18.5205 57.4232 20.4813 57.4232C22.4421 57.4232 24.0316 59.0536 24.0316 61.0649Z" fill="white"/>
<path d="M7.10067 36.0333C7.10067 38.0446 5.51113 39.675 3.55033 39.675C1.58954 39.675 0 38.0446 0 36.0333C0 34.0221 1.58954 32.3916 3.55033 32.3916C5.51113 32.3916 7.10067 34.0221 7.10067 36.0333Z" fill="white"/>
<path d="M98.5025 4.7562C98.5025 6.76747 96.9129 8.39792 94.9521 8.39792C92.9914 8.39792 91.4018 6.76747 91.4018 4.7562C91.4018 2.74494 92.9914 1.11449 94.9521 1.11449C96.9129 1.11449 98.5025 2.74494 98.5025 4.7562Z" fill="white"/>
</svg>
