<svg width="20" height="21" viewBox="0 0 20 21" fill="none" xmlns="http://www.w3.org/2000/svg">
<path opacity="0.3" d="M10.0193 1.60938C17.3115 1.60938 21.8692 9.5036 18.223 15.819C17.3916 17.259 16.1958 18.4549 14.7557 19.2863C13.3157 20.1177 11.6821 20.5555 10.0193 20.5555C2.72702 20.5555 -1.83064 12.6613 1.81549 6.34591C2.64691 4.90586 3.84275 3.71002 5.28281 2.87859C6.72287 2.04715 8.35641 1.60942 10.0193 1.60938Z" fill="#5FD1E2"/>
<path d="M5.14169 0.525917C5.28127 0.767669 5.31909 1.05496 5.24684 1.3246C5.1746 1.59424 4.9982 1.82414 4.75645 1.96372C3.66146 2.59881 2.68869 3.42435 1.88397 4.40146C1.79767 4.5126 1.68996 4.60532 1.56721 4.67412C1.44446 4.74292 1.30916 4.78641 1.16931 4.80201C1.02946 4.81762 0.887897 4.80502 0.752999 4.76497C0.618101 4.72492 0.492603 4.65823 0.383926 4.56884C0.275249 4.47945 0.185599 4.36918 0.120278 4.24454C0.0549564 4.11991 0.0152898 3.98344 0.00362359 3.8432C-0.00804261 3.70297 0.00852851 3.56183 0.0523568 3.42811C0.096185 3.29439 0.166381 3.17082 0.258793 3.0647C1.22152 1.89144 2.38782 0.901295 3.70177 0.141732C3.82146 0.0724144 3.95363 0.0273653 4.09074 0.00915908C4.22785 -0.00904716 4.3672 -5.34015e-05 4.50083 0.0356264C4.63446 0.0713061 4.75974 0.132972 4.86953 0.217099C4.97931 0.301227 5.07144 0.406166 5.14064 0.525917H5.14169ZM16.3348 0.141732C17.649 0.900877 18.8157 1.89067 19.7788 3.06365C19.9469 3.2801 20.0239 3.55355 19.9935 3.82589C19.9631 4.09823 19.8277 4.34799 19.6161 4.52207C19.4044 4.69614 19.1332 4.78082 18.8602 4.7581C18.5871 4.73539 18.3336 4.60706 18.1536 4.4004C17.3505 3.42207 16.3774 2.59662 15.2812 1.96372C15.0395 1.82386 14.8634 1.59375 14.7914 1.32401C14.7195 1.05427 14.7576 0.767002 14.8975 0.525391C15.0374 0.283781 15.2675 0.107624 15.5372 0.0356738C15.8069 -0.0362763 16.0932 0.00187382 16.3348 0.141732ZM10.0193 5.81926C9.76152 5.81929 9.51269 5.91395 9.32003 6.08526C9.12737 6.25657 9.00429 6.49264 8.97412 6.74867L8.96675 6.87182V11.0673C8.9636 11.301 9.03833 11.5305 9.17937 11.7168L9.27411 11.8262L11.4908 14.0419C11.6798 14.2327 11.9346 14.344 12.2029 14.3531C12.4713 14.3622 12.733 14.2684 12.9345 14.0909C13.136 13.9133 13.262 13.6655 13.2867 13.3981C13.3115 13.1307 13.2331 12.864 13.0676 12.6525L12.9792 12.5536L11.0719 10.6463V6.87182C11.0719 6.59267 10.961 6.32494 10.7636 6.12755C10.5662 5.93016 10.2985 5.81926 10.0193 5.81926Z" fill="#60D2E3"/>
</svg>
